<?xml version="1.0" encoding="UTF-8" standalone="no"?>
<!-- Created with Inkscape (http://www.inkscape.org/) -->

<svg
   width="210mm"
   height="210mm"
   viewBox="0 0 210 210"
   version="1.1"
   id="svg5"
   xml:space="preserve"
   inkscape:version="1.2 (dc2aeda, 2022-05-15)"
   sodipodi:docname="ico.svg"
   inkscape:export-filename="drawing.png"
   inkscape:export-xdpi="30.963808"
   inkscape:export-ydpi="30.963808"
   xmlns:inkscape="http://www.inkscape.org/namespaces/inkscape"
   xmlns:sodipodi="http://sodipodi.sourceforge.net/DTD/sodipodi-0.dtd"
   xmlns="http://www.w3.org/2000/svg"
   xmlns:svg="http://www.w3.org/2000/svg"><sodipodi:namedview
     id="namedview7"
     pagecolor="#505050"
     bordercolor="#eeeeee"
     borderopacity="1"
     inkscape:showpageshadow="0"
     inkscape:pageopacity="0"
     inkscape:pagecheckerboard="0"
     inkscape:deskcolor="#505050"
     inkscape:document-units="mm"
     showgrid="false"
     inkscape:zoom="1.0570734"
     inkscape:cx="396.37739"
     inkscape:cy="396.85039"
     inkscape:window-width="1920"
     inkscape:window-height="1017"
     inkscape:window-x="0"
     inkscape:window-y="0"
     inkscape:window-maximized="1"
     inkscape:current-layer="layer4" /><defs
     id="defs2" /><g
     inkscape:groupmode="layer"
     id="layer4"
     inkscape:label="color"
     style="display:inline"><path
       style="display:inline;color:#000000;fill:#d38d5f;stroke-linecap:round;-inkscape-stroke:none"
       d="m 91.378786,12.379089 c -43.731276,0 -78.999785,35.268555 -78.999785,78.999829 v 27.242262 c 0,43.73129 35.268509,78.99983 78.999785,78.99983 h 11.620984 1.99988 92.62122 v -92.62122 -1.99988 -11.620992 c 0,-43.731274 -35.26854,-78.999829 -78.99983,-78.999829 z"
       id="path1456" /><path
       id="rect2234"
       style="display:inline;fill:#fd7c2b;fill-opacity:1;stroke:none;stroke-width:4;stroke-linecap:round;stroke-dasharray:none"
       d="m 104.99981,104.99979 v 90.62031 c 0,0 78.86264,1.5e-4 90.62044,1.5e-4 0,-10.35733 -8e-5,-90.62046 -8e-5,-90.62046 z"
       sodipodi:nodetypes="ccccc" /></g><g
     inkscape:groupmode="layer"
     id="layer2"
     inkscape:label="shape"
     style="display:inline"><path
       style="fill:#f2f2f2;stroke:#000000;stroke-width:4;stroke-linecap:round;stroke-dasharray:none"
       d="M 105,14.379748 V 195.62025"
       id="path1066" /><path
       style="fill:#f2f2f2;stroke:#000000;stroke-width:4;stroke-linecap:round;stroke-dasharray:none"
       d="M 14.379748,105 H 195.62025"
       id="path1068" /><path
       id="rect305"
       style="color:#000000;fill:#000000;stroke-linecap:round;-inkscape-stroke:none"
       d="M 91.378918 12.379089 C 47.6476 12.379089 12.379089 47.6476 12.379089 91.378918 L 12.379089 118.62118 C 12.379089 162.35251 47.6476 197.62101 91.378918 197.62101 L 104.99979 197.62101 L 104.99979 193.62126 L 91.378918 193.62126 C 49.794407 193.62126 16.378845 160.2057 16.378845 118.62118 L 16.378845 91.378918 C 16.378845 49.794407 49.794407 16.378845 91.378918 16.378845 L 118.62118 16.378845 C 160.2057 16.378845 193.62126 49.794407 193.62126 91.378918 L 193.62126 104.99979 L 197.62101 104.99979 L 197.62101 91.378918 C 197.62101 47.6476 162.35251 12.379089 118.62118 12.379089 L 91.378918 12.379089 z " /><path
       id="rect636"
       style="color:#000000;fill:#000000;stroke-linecap:round"
       d="M 193.62126 102.99991 L 193.62126 107.00019 L 193.62126 193.62126 L 107.00019 193.62126 L 102.99991 193.62126 L 102.99991 197.62101 L 197.62101 197.62101 L 197.62101 102.99991 L 193.62126 102.99991 z " /></g><g
     inkscape:groupmode="layer"
     id="layer3"
     inkscape:label="signs"><g
       id="g1340"
       transform="translate(-0.27012992,-1.1294124)"
       style="stroke:#000000"><g
         id="g1298"
         style="stroke:#000000"><path
           style="fill:none;stroke:#000000;stroke-width:9.71687;stroke-linecap:square;stroke-dasharray:none"
           d="M 60.820078,50.80586 V 77.214625"
           id="path1080" /><path
           style="fill:none;stroke:#000000;stroke-width:9.71687;stroke-linecap:square;stroke-dasharray:none"
           d="M 74.024461,64.010242 H 47.615695"
           id="path1271" /></g><path
         style="fill:none;stroke:#000000;stroke-width:9.717;stroke-linecap:square;stroke-dasharray:none"
         d="M 162.9245,64.010242 H 136.51571"
         id="path1273" /><g
         id="g1302"
         transform="translate(0,-0.793815)"
         style="stroke:#000000"><path
           style="fill:none;stroke:#000000;stroke-width:9.71687;stroke-linecap:square;stroke-dasharray:none"
           d="M 162.9245,139.68111 H 136.51571"
           id="path1275" /><path
           style="fill:none;stroke:#000000;stroke-width:9.71687;stroke-linecap:square;stroke-dasharray:none"
           d="M 162.9245,159.26028 H 136.51571"
           id="path1277" /></g><g
         id="g1308"
         style="stroke:#000000"><path
           style="fill:none;stroke:#000000;stroke-width:9.717;stroke-linecap:round;stroke-dasharray:none"
           d="M 73.596099,135.90086 48.04405,161.4529"
           id="path1294" /><path
           style="fill:none;stroke:#000000;stroke-width:9.717;stroke-linecap:round;stroke-dasharray:none"
           d="M 48.04405,135.90086 73.596099,161.4529"
           id="path1304" /></g></g></g></svg>
